<svg width="64" height="64" viewBox="0 0 64 64" fill="none" xmlns="http://www.w3.org/2000/svg">
<rect x="0.5" y="0.5" width="63" height="63" rx="12.5" fill="white"/>
<rect x="0.5" y="0.5" width="63" height="63" rx="12.5" stroke="#DCE0E5"/>
<path d="M32 45C39.1797 45 45 39.1797 45 32C45 24.8203 39.1797 19 32 19C24.8203 19 19 24.8203 19 32C19 39.1797 24.8203 45 32 45Z" fill="#FDB421" stroke="#FDB421" stroke-width="2.5"/>
<path d="M32 51C42.4934 51 51 42.4934 51 32C51 21.5066 42.4934 13 32 13C21.5066 13 13 21.5066 13 32" stroke="#0070F2" stroke-width="2.5" stroke-linecap="round"/>
<path d="M28.0029 28.0852C28.0029 28.0852 28.0629 26.7107 29.3999 25.6086C30.1938 24.9542 31.1472 24.7647 32.0015 24.7531C32.7816 24.7435 33.4788 24.8755 33.8958 25.0788C34.6084 25.4278 36 26.2775 36 28.0852C36 29.9874 34.7846 30.8496 33.403 31.7996C32.0215 32.7497 31.6683 33.6814 31.6683 34.7494" stroke="#0070F2" stroke-width="2.5" stroke-miterlimit="10" stroke-linecap="round"/>
<path d="M31.7805 40C32.6089 40 33.2805 39.3284 33.2805 38.5C33.2805 37.6716 32.6089 37 31.7805 37C30.9521 37 30.2805 37.6716 30.2805 38.5C30.2805 39.3284 30.9521 40 31.7805 40Z" fill="#0070F2"/>
<rect x="10" y="26" width="6" height="12" rx="3" fill="#FC5B1C"/>
<rect x="48" y="26" width="6" height="12" rx="3" fill="#FC5B1C"/>
<rect x="37" y="49" width="4" height="11" rx="2" transform="rotate(90 37 49)" fill="#FC5B1C"/>
</svg>
