<svg width="64" height="64" viewBox="0 0 64 64" fill="none" xmlns="http://www.w3.org/2000/svg">
<g clip-path="url(#clip0_3631_3277)">
<path d="M51 0.5H13C6.09644 0.5 0.5 6.09644 0.5 13V51C0.5 57.9036 6.09644 63.5 13 63.5H51C57.9036 63.5 63.5 57.9036 63.5 51V13C63.5 6.09644 57.9036 0.5 51 0.5Z" fill="white"/>
<path d="M51 0.5H13C6.09644 0.5 0.5 6.09644 0.5 13V51C0.5 57.9036 6.09644 63.5 13 63.5H51C57.9036 63.5 63.5 57.9036 63.5 51V13C63.5 6.09644 57.9036 0.5 51 0.5Z" stroke="#DCE0E5"/>
<path d="M56 8H8V56H56V8Z" fill="white"/>
<path fill-rule="evenodd" clip-rule="evenodd" d="M30.3754 9.11607C29.3274 9.32662 28.597 9.88987 28.0781 10.8874C27.8752 11.2777 27.7884 11.8962 27.7176 13.457C27.6161 15.6913 27.5226 16.0496 26.8881 16.6338C26.2378 17.2325 25.5931 17.4949 24.7719 17.4949C23.7768 17.4949 23.3185 17.2358 21.8704 15.855C21.2021 15.2176 20.3705 14.5675 20.0224 14.4102C19.1883 14.0333 18.1532 14.0392 17.3274 14.4258C16.4735 14.8255 14.8687 16.4124 14.4522 17.2692C13.6366 18.9466 13.9199 19.9063 15.8052 21.8534C17.1206 23.2119 17.547 23.8969 17.5454 24.6482C17.5441 25.3572 17.2505 26.1487 16.7991 26.6607C16.134 27.4148 15.4239 27.6265 13.3413 27.692C10.8124 27.7714 9.93874 28.1832 9.27398 29.6084C9.055 30.0779 9 30.5493 9 31.9578C9 33.3662 9.055 33.8376 9.27398 34.3071C9.91441 35.6801 10.5918 35.9977 13.2056 36.1501C15.7747 36.3 16.5148 36.6086 17.1157 37.7808C17.8837 39.2791 17.5268 40.3749 15.6888 42.1625C14.3772 43.4384 14.015 44.1063 14.0104 45.2576C14.0065 46.277 14.4455 46.9934 15.927 48.3851C17.1847 49.5665 17.6962 49.8398 18.6502 49.8398C19.6839 49.8398 20.4078 49.4288 21.9683 47.9561C22.6944 47.2709 23.4607 46.6452 23.6711 46.5656C24.5517 46.2321 25.8672 46.4757 26.6336 47.114C27.3494 47.7103 27.4959 48.1574 27.5834 50.0105C27.7538 53.6213 28.8797 54.985 31.7026 54.9999C33.239 55.0078 34.4452 54.668 35.1893 54.0176C36.0142 53.2963 36.1658 52.7845 36.1994 50.6053C36.233 48.4171 36.4349 47.8236 37.4269 46.9943L37.9944 46.5198L36.8248 45.515C36.1814 44.9623 35.4883 44.4685 35.2846 44.4176C35.0809 44.3668 34.374 44.4003 33.7139 44.492C30.8582 44.8893 28.4444 44.4782 25.9775 43.1744C22.7406 41.4635 20.5464 38.7035 19.5806 35.1283C19.1464 33.5208 19.1473 30.8035 19.5827 29.0503C20.5698 25.0761 23.3465 21.8183 27.0099 20.336C29.2015 19.4493 32.5747 19.1416 34.8472 19.6211C36.095 19.8844 37.8374 20.6246 39.0026 21.3866C40.3146 22.2446 42.1374 24.1541 42.9359 25.5072C44.308 27.8324 44.7476 29.82 44.5923 32.9991C44.4963 34.9646 44.5093 35.1226 44.8176 35.7569C44.9975 36.1269 45.478 36.7279 45.8851 37.0924L46.6257 37.7554L47.2179 37.2506C48.0832 36.5132 48.8933 36.2893 50.6974 36.2893C52.6057 36.2893 53.284 36.0965 54.0459 35.3378C54.8136 34.5736 55.0018 33.9033 55 31.9407C54.9988 30.5686 54.9491 30.2367 54.6484 29.5939C54.0116 28.2318 52.9321 27.7731 50.3642 27.7731C48.955 27.7731 48.6304 27.7264 48.0671 27.4427C46.7078 26.7582 46.1053 25.138 46.7066 23.7844C46.8668 23.4239 47.5899 22.5017 48.3135 21.7349C49.6682 20.2993 49.9878 19.7097 49.9878 18.6445C49.9878 17.8437 49.3232 16.7152 48.2783 15.742C46.9946 14.5463 46.3096 14.2045 45.1953 14.2039C44.0405 14.2033 43.567 14.4656 42.1341 15.9001C40.3276 17.7086 39.418 18.0023 37.9228 17.2604C37.3537 16.978 37.051 16.7036 36.7562 16.2026C36.3883 15.5775 36.3513 15.363 36.2702 13.3902C36.1718 10.9995 36.0689 10.6806 35.1209 9.82776C34.7255 9.47198 34.2943 9.25174 33.7769 9.14132C32.9474 8.9641 31.1962 8.95117 30.3754 9.11607Z" fill="#0070F2"/>
<path fill-rule="evenodd" clip-rule="evenodd" d="M31.7824 23.3831C30.1553 23.6173 30.1365 23.5481 32.4441 25.8087C34.976 28.289 35.3871 28.9759 35.373 30.7022C35.3622 32.0104 34.9673 32.912 33.947 33.9573C32.4693 35.4714 30.4333 35.8906 28.5987 35.0585C27.8753 34.7303 27.3459 34.2796 25.6961 32.5868C24.3538 31.2095 23.6053 30.5443 23.4602 30.5998C23.175 30.7088 22.9998 32.3057 23.1189 33.7093C23.4217 37.2751 26.1198 40.6217 29.7047 41.8777C31.0845 42.3612 33.4147 42.3625 35.1832 41.881C36.0867 41.6351 36.5695 41.5708 36.8373 41.6608C37.0452 41.7307 38.9595 43.5084 41.0912 45.6111C46.3436 50.7922 46.6387 51.0508 47.5111 51.2371C48.5026 51.4489 49.3016 51.2182 50.1487 50.4757C50.94 49.7822 51.375 48.94 51.375 48.1017C51.375 46.8727 51.0239 46.4399 46.2095 41.7327C43.6691 39.2491 41.6057 37.1155 41.5571 36.9222C41.5088 36.7311 41.6168 36.0314 41.7967 35.3673C42.4875 32.8179 42.3065 30.7734 41.1884 28.4997C40.7013 27.5092 40.328 27.0088 39.3792 26.0748C37.1714 23.9015 34.5746 22.9813 31.7824 23.3831Z" fill="#FDB421"/>
<circle cx="47.7765" cy="47.7615" r="1.52759" fill="#FC5B1C"/>
</g>
<defs>
<clipPath id="clip0_3631_3277">
<rect width="64" height="64" fill="white"/>
</clipPath>
</defs>
</svg>
